<svg viewBox="0 0 48 34" fill="none" xmlns="http://www.w3.org/2000/svg">
<g clip-path="url(#clip0_1442_7091)">
<path d="M7.61926 11.2326C7.552 11.2326 7.48474 11.2143 7.41748 11.1837C7.19124 11.0736 7.09952 10.7985 7.20958 10.5722L11.4103 2.09732C12.0402 0.819363 13.367 0 14.7856 0H33.2091C34.6277 0 35.9484 0.825478 36.5844 2.09732L40.7851 10.5722C40.8952 10.7985 40.8035 11.0736 40.5772 11.1837C40.3449 11.2938 40.0758 11.202 39.9658 10.9758L35.765 2.50089C35.288 1.53478 34.2852 0.911083 33.2152 0.911083H14.7917C13.7217 0.911083 12.7189 1.53478 12.2419 2.50089L8.04117 10.9758C7.96168 11.1348 7.79659 11.2326 7.63149 11.2326H7.61926Z" fill="#E03100"/>
<path d="M7.62497 13.2993H1.47975C0.660382 13.2993 0 12.6328 0 11.8074V10.774C0 9.38597 1.1251 8.25476 2.50701 8.25476H5.57656C6.95847 8.25476 8.08357 9.38597 8.08357 10.774V12.8407C8.08357 13.0914 7.87567 13.2993 7.62497 13.2993ZM2.50701 9.17196C1.63261 9.17196 0.917197 9.89349 0.917197 10.7801V11.8135C0.917197 12.1314 1.17401 12.3883 1.47975 12.3883H7.16025V10.7801C7.16025 9.89349 6.44484 9.17196 5.57045 9.17196H2.50089H2.50701Z" fill="#E03100"/>
<path d="M46.5206 13.2993H40.3815C40.1307 13.2993 39.9229 13.0914 39.9229 12.8407V10.774C39.9229 9.38597 41.0479 8.25476 42.4299 8.25476H45.4994C46.8813 8.25476 48.0064 9.38597 48.0064 10.774V11.8074C48.0064 12.6267 47.3399 13.2993 46.5267 13.2993H46.5206ZM40.84 12.3821H46.5206C46.8324 12.3821 47.0831 12.1253 47.0831 11.8074V10.774C47.0831 9.88737 46.3677 9.16584 45.4933 9.16584H42.4237C41.5493 9.16584 40.8339 9.88737 40.8339 10.774V12.3821H40.84Z" fill="#E03100"/>
<path d="M44.4723 33.9363H40.3755C39.5561 33.9363 38.8957 33.2698 38.8957 32.4444V29.809H9.10513V32.4444C9.10513 33.2637 8.43864 33.9363 7.62539 33.9363H3.52857C2.70921 33.9363 2.04883 33.2698 2.04883 32.4444V18.0016C2.04883 14.9014 4.54972 12.3822 7.62539 12.3822H40.3816C43.4572 12.3822 45.9581 14.9014 45.9581 18.0016V32.4444C45.9581 33.2637 45.2916 33.9363 44.4784 33.9363H44.4723ZM8.64654 28.8918H39.3543C39.605 28.8918 39.8129 29.0997 39.8129 29.3504V32.4444C39.8129 32.7623 40.0697 33.0191 40.3755 33.0191H44.4723C44.7841 33.0191 45.0409 32.7623 45.0409 32.4444V18.0016C45.0409 15.409 42.9497 13.2994 40.3816 13.2994H7.62539C5.05724 13.2994 2.96603 15.409 2.96603 18.0016V32.4444C2.96603 32.7623 3.22284 33.0191 3.52857 33.0191H7.62539C7.93724 33.0191 8.18794 32.7623 8.18794 32.4444V29.3504C8.18794 29.0997 8.39583 28.8918 8.64654 28.8918Z" fill="#E03100"/>
<path d="M31.1661 25.6815H16.8395C16.5888 25.6815 16.3809 25.4736 16.3809 25.2229C16.3809 24.9722 16.5888 24.7643 16.8395 24.7643H31.1661C31.4168 24.7643 31.6247 24.9722 31.6247 25.2229C31.6247 25.4736 31.4168 25.6815 31.1661 25.6815Z" fill="#E03100"/>
<path d="M10.6945 21.5541C10.5722 21.5541 10.456 21.5052 10.3704 21.4196L6.24299 17.2922C6.11459 17.1638 6.07178 16.962 6.14516 16.7908C6.21854 16.6196 6.38363 16.5095 6.56707 16.5095H14.8218C15.0053 16.5095 15.1765 16.6196 15.2438 16.7908C15.3171 16.962 15.2743 17.1577 15.1459 17.2922L11.0185 21.4196C10.9329 21.5052 10.8168 21.5541 10.6945 21.5541ZM7.67382 17.4267L10.6945 20.4474L13.7151 17.4267H7.67382Z" fill="#E03100"/>
<path d="M37.3058 21.5541C37.1835 21.5541 37.0673 21.5052 36.9817 21.4196L32.8543 17.2922C32.7259 17.1638 32.6831 16.962 32.7565 16.7908C32.8299 16.6196 32.995 16.5095 33.1784 16.5095H41.4332C41.6166 16.5095 41.7878 16.6196 41.8551 16.7908C41.9285 16.962 41.8857 17.1577 41.7573 17.2922L37.6299 21.4196C37.5443 21.5052 37.4281 21.5541 37.3058 21.5541ZM34.2852 17.4267L37.3058 20.4474L40.3264 17.4267H34.2852Z" fill="#E03100"/>
</g>
<defs>
<clipPath id="clip0_1442_7091">
<rect width="48" height="33.9363" fill="white"/>
</clipPath>
</defs>
</svg>
