<svg viewBox="0 0 48 45" fill="none" xmlns="http://www.w3.org/2000/svg">
<g clip-path="url(#clip0_1935_6307)">
<path d="M6.12354 39.1839C5.86061 39.1839 5.64258 38.9659 5.64258 38.703V4.83684C5.64258 2.49616 7.54719 0.591553 9.88787 0.591553H39.9897C40.2526 0.591553 40.4706 0.809589 40.4706 1.07251C40.4706 1.33544 40.2526 1.55348 39.9897 1.55348H9.88787C8.07945 1.55348 6.6045 3.02843 6.6045 4.83684V38.703C6.6045 38.9659 6.38647 39.1839 6.12354 39.1839Z" fill="#E03100"/>
<path d="M28.703 10.9611H19.2954C19.0325 10.9611 18.8145 10.743 18.8145 10.4801C18.8145 10.2172 19.0325 9.99915 19.2954 9.99915H28.703C28.966 9.99915 29.184 10.2172 29.184 10.4801C29.184 10.743 28.966 10.9611 28.703 10.9611Z" fill="#E03100"/>
<path d="M24.9387 14.7255H19.2954C19.0325 14.7255 18.8145 14.5074 18.8145 14.2445C18.8145 13.9816 19.0325 13.7635 19.2954 13.7635H24.9387C25.2016 13.7635 25.4197 13.9816 25.4197 14.2445C25.4197 14.5074 25.2016 14.7255 24.9387 14.7255Z" fill="#E03100"/>
<path d="M28.703 20.3687H19.2954C19.0325 20.3687 18.8145 20.1506 18.8145 19.8877C18.8145 19.6248 19.0325 19.4067 19.2954 19.4067H28.703C28.966 19.4067 29.184 19.6248 29.184 19.8877C29.184 20.1506 28.966 20.3687 28.703 20.3687Z" fill="#E03100"/>
<path d="M24.9387 24.1331H19.2954C19.0325 24.1331 18.8145 23.915 18.8145 23.6521C18.8145 23.3892 19.0325 23.1711 19.2954 23.1711H24.9387C25.2016 23.1711 25.4197 23.3892 25.4197 23.6521C25.4197 23.915 25.2016 24.1331 24.9387 24.1331Z" fill="#E03100"/>
<path d="M28.703 29.7764H19.2954C19.0325 29.7764 18.8145 29.5583 18.8145 29.2954C18.8145 29.0325 19.0325 28.8145 19.2954 28.8145H28.703C28.966 28.8145 29.184 29.0325 29.184 29.2954C29.184 29.5583 28.966 29.7764 28.703 29.7764Z" fill="#E03100"/>
<path d="M24.9387 33.5407H19.2954C19.0325 33.5407 18.8145 33.3226 18.8145 33.0597C18.8145 32.7968 19.0325 32.5787 19.2954 32.5787H24.9387C25.2016 32.5787 25.4197 32.7968 25.4197 33.0597C25.4197 33.3226 25.2016 33.5407 24.9387 33.5407Z" fill="#E03100"/>
<path d="M11.7685 14.7254C11.6466 14.7254 11.5248 14.6805 11.4286 14.5843L9.54964 12.7053C9.36366 12.5194 9.36366 12.2116 9.54964 12.0256C9.73561 11.8396 10.0434 11.8396 10.2294 12.0256L11.7685 13.5647L15.1929 10.1402C15.3789 9.95424 15.6867 9.95424 15.8727 10.1402C16.0587 10.3262 16.0587 10.634 15.8727 10.82L12.1084 14.5843C12.0122 14.6805 11.8903 14.7254 11.7685 14.7254Z" fill="#E03100"/>
<path d="M11.7685 24.1331C11.6466 24.1331 11.5248 24.0882 11.4286 23.992L9.54964 22.1131C9.36366 21.9271 9.36366 21.6193 9.54964 21.4333C9.73561 21.2473 10.0434 21.2473 10.2294 21.4333L11.7685 22.9724L15.1929 19.5479C15.3789 19.362 15.6867 19.362 15.8727 19.5479C16.0587 19.7339 16.0587 20.0417 15.8727 20.2277L12.1084 23.992C12.0122 24.0882 11.8903 24.1331 11.7685 24.1331Z" fill="#E03100"/>
<path d="M11.7685 33.5406C11.6402 33.5406 11.5184 33.4893 11.4286 33.3995L9.54964 31.5206C9.36366 31.3346 9.36366 31.0268 9.54964 30.8408C9.73561 30.6549 10.0434 30.6549 10.2294 30.8408L11.7685 32.3863L15.1929 28.9619C15.3789 28.7759 15.6867 28.7759 15.8727 28.9619C16.0587 29.1478 16.0587 29.4557 15.8727 29.6416L12.1084 33.406C12.0186 33.4957 11.8967 33.547 11.7685 33.547V33.5406Z" fill="#E03100"/>
<path d="M41.8697 42.9418C40.042 42.9418 39.5867 39.4468 39.5098 38.7478C39.5098 38.7286 39.5098 38.7158 39.5098 38.6965V11.4228C39.5098 10.6404 40.1446 9.99915 40.9334 9.99915H42.8124C43.5947 9.99915 44.236 10.634 44.236 11.4228V38.703C44.1591 39.4533 43.7038 42.9482 41.8761 42.9482L41.8697 42.9418ZM40.4653 38.6709C40.6192 40.0689 41.1835 41.9799 41.8697 41.9799C42.5559 41.9799 43.1266 40.0432 43.2741 38.6452V11.4228C43.2741 11.1663 43.0625 10.9611 42.8124 10.9611H40.9334C40.6769 10.9611 40.4717 11.1663 40.4717 11.4228V38.6773L40.4653 38.6709Z" fill="#E03100"/>
<path d="M43.7551 24.1331H39.9907C39.7278 24.1331 39.5098 23.915 39.5098 23.6521C39.5098 23.3892 39.7278 23.1711 39.9907 23.1711H43.7551C44.018 23.1711 44.236 23.3892 44.236 23.6521C44.236 23.915 44.018 24.1331 43.7551 24.1331Z" fill="#E03100"/>
<path d="M47.5187 22.2477C47.2558 22.2477 47.0378 22.0297 47.0378 21.7668V15.1808C47.0378 13.8918 45.9861 12.8401 44.6971 12.8401H43.7544C43.4915 12.8401 43.2734 12.6221 43.2734 12.3591C43.2734 12.0962 43.4915 11.8782 43.7544 11.8782H44.6971C46.5183 11.8782 47.9997 13.3595 47.9997 15.1808V21.7668C47.9997 22.0297 47.7817 22.2477 47.5187 22.2477Z" fill="#E03100"/>
<path d="M32.4681 44.8272H4.24529C1.90461 44.8272 0 42.9226 0 40.5819V38.703C0 38.4401 0.218036 38.222 0.480962 38.222H28.7038C28.9667 38.222 29.1848 38.4401 29.1848 38.703V40.5819C29.1848 42.3904 30.6597 43.8653 32.4681 43.8653C34.2766 43.8653 35.7515 42.3904 35.7515 40.5819V4.83684C35.7515 2.49616 37.6561 0.591553 39.9968 0.591553C42.3375 0.591553 44.2421 2.49616 44.2421 4.83684V6.7158C44.2421 6.97873 44.0241 7.19676 43.7611 7.19676H36.7134V40.5819C36.7134 42.9226 34.8088 44.8272 32.4681 44.8272ZM0.961924 39.1839V40.5819C0.961924 42.3904 2.43687 43.8653 4.24529 43.8653H29.7812C28.8321 43.0894 28.2228 41.903 28.2228 40.5819V39.1839H0.961924ZM36.707 6.23484H43.2738V4.83684C43.2738 3.02843 41.7988 1.55348 39.9904 1.55348C38.182 1.55348 36.707 3.02843 36.707 4.83684V6.23484Z" fill="#E03100"/>
<path d="M41.8696 44.8272C41.6067 44.8272 41.3887 44.6092 41.3887 44.3462V42.4673C41.3887 42.2044 41.6067 41.9863 41.8696 41.9863C42.1326 41.9863 42.3506 42.2044 42.3506 42.4673V44.3462C42.3506 44.6092 42.1326 44.8272 41.8696 44.8272Z" fill="#E03100"/>
</g>
<defs>
<clipPath id="clip0_1935_6307">
<rect width="48" height="44.2357" fill="white" transform="translate(0 0.591553)"/>
</clipPath>
</defs>
</svg>
