<svg viewBox="0 0 45 48" fill="none" xmlns="http://www.w3.org/2000/svg">
<g clip-path="url(#clip0_1442_7081)">
<path d="M39.0382 42.3653C36.791 42.3653 34.7328 41.4475 33.3967 39.8752C32.0606 41.4475 30.0023 42.3653 27.7552 42.3653C25.508 42.3653 23.4498 41.4475 22.1137 39.8752C20.7775 41.4475 18.7193 42.3653 16.4722 42.3653C14.225 42.3653 12.1668 41.4475 10.8307 39.8752C9.49454 41.4475 7.43634 42.3653 5.18918 42.3653C3.21871 42.3653 1.43043 41.731 0.155021 40.5838C-0.0541735 40.3948 -0.0676699 40.0776 0.114532 39.8684C0.303481 39.6593 0.620647 39.6458 0.829842 39.828C1.92305 40.8132 3.47514 41.3531 5.18918 41.3531C7.32162 41.3531 9.31909 40.3543 10.4123 38.755C10.6012 38.4783 11.0601 38.4783 11.2491 38.755C12.3423 40.3611 14.3398 41.3531 16.4722 41.3531C18.6046 41.3531 20.6021 40.3543 21.6953 38.755C21.8843 38.4783 22.3431 38.4783 22.5321 38.755C23.6253 40.3611 25.6228 41.3531 27.7552 41.3531C29.8876 41.3531 31.8851 40.3543 32.9783 38.755C33.1673 38.4783 33.6261 38.4783 33.8151 38.755C34.9083 40.3611 36.9058 41.3531 39.0382 41.3531C40.759 41.3531 42.3043 40.8132 43.3975 39.828C43.6067 39.639 43.9239 39.6593 44.1128 39.8684C44.3018 40.0776 44.2815 40.3948 44.0724 40.5838C42.7902 41.7377 41.0019 42.3653 39.0382 42.3653Z" fill="#E03100"/>
<path d="M39.0382 48C36.791 48 34.7328 47.0823 33.3967 45.51C32.0606 47.0823 30.0023 48 27.7552 48C25.508 48 23.4498 47.0823 22.1137 45.51C20.7775 47.0823 18.7193 48 16.4722 48C14.225 48 12.1668 47.0823 10.8307 45.51C9.49454 47.0823 7.43634 48 5.18918 48C3.21871 48 1.43043 47.3657 0.155021 46.2185C-0.0541735 46.0296 -0.0676699 45.7124 0.114532 45.5032C0.303481 45.294 0.620647 45.2805 0.829842 45.4627C1.92305 46.448 3.47514 46.9878 5.18918 46.9878C7.32162 46.9878 9.31909 45.9891 10.4123 44.3898C10.6012 44.1131 11.0601 44.1131 11.2491 44.3898C12.3423 45.9958 14.3398 46.9878 16.4722 46.9878C18.6046 46.9878 20.6021 45.9891 21.6953 44.3898C21.8843 44.1131 22.3431 44.1131 22.5321 44.3898C23.6253 45.9958 25.6228 46.9878 27.7552 46.9878C29.8876 46.9878 31.8851 45.9891 32.9783 44.3898C33.1673 44.1131 33.6261 44.1131 33.8151 44.3898C34.9083 45.9958 36.9058 46.9878 39.0382 46.9878C40.759 46.9878 42.3043 46.448 43.3975 45.4627C43.6067 45.2738 43.9239 45.294 44.1128 45.5032C44.3018 45.7124 44.2815 46.0296 44.0724 46.2185C42.7902 47.3725 41.0019 48 39.0382 48Z" fill="#E03100"/>
<path d="M22.1204 39.5445C21.8437 39.5445 21.6143 39.3151 21.6143 39.0384V13.6652C21.6143 13.3885 21.8437 13.1591 22.1204 13.1591C22.397 13.1591 22.6265 13.3885 22.6265 13.6652V39.0384C22.6265 39.3151 22.397 39.5445 22.1204 39.5445Z" fill="#E03100"/>
<path d="M15.5413 27.3234C14.2254 27.3234 13.1592 26.2505 13.1592 24.9413C13.1592 23.6322 14.2321 22.5592 15.5413 22.5592C16.8504 22.5592 17.9302 23.6322 17.9302 24.9413C17.9302 26.2505 16.8572 27.3234 15.5413 27.3234ZM15.5413 23.5647C14.7855 23.5647 14.1647 24.1788 14.1647 24.9413C14.1647 25.7039 14.7788 26.318 15.5413 26.318C16.3038 26.318 16.9179 25.7039 16.9179 24.9413C16.9179 24.1788 16.3038 23.5647 15.5413 23.5647Z" fill="#E03100"/>
<path d="M28.7005 27.3234C27.3846 27.3234 26.3184 26.2505 26.3184 24.9413C26.3184 23.6322 27.3913 22.5592 28.7005 22.5592C30.0096 22.5592 31.0893 23.6322 31.0893 24.9413C31.0893 26.2505 30.0164 27.3234 28.7005 27.3234ZM28.7005 23.5647C27.9447 23.5647 27.3238 24.1788 27.3238 24.9413C27.3238 25.7039 27.9379 26.318 28.7005 26.318C29.463 26.318 30.0771 25.7039 30.0771 24.9413C30.0771 24.1788 29.463 23.5647 28.7005 23.5647Z" fill="#E03100"/>
<path d="M36.2177 22.8966C35.941 22.8966 35.7116 22.6672 35.7116 22.3905V13.6651C35.7116 13.3884 35.941 13.159 36.2177 13.159H39.4703V8.52969H4.77102V13.159H8.02366C8.30033 13.159 8.52977 13.3884 8.52977 13.6651V22.3905C8.52977 22.6672 8.30033 22.8966 8.02366 22.8966C7.74698 22.8966 7.51754 22.6672 7.51754 22.3905V14.1712H4.2649C3.98823 14.1712 3.75879 13.9417 3.75879 13.6651V8.02357C3.75879 7.7469 3.98823 7.51746 4.2649 7.51746H39.9764C40.2531 7.51746 40.4825 7.7469 40.4825 8.02357V13.6651C40.4825 13.9417 40.2531 14.1712 39.9764 14.1712H36.7238V22.3905C36.7238 22.6672 36.4943 22.8966 36.2177 22.8966Z" fill="#E03100"/>
<path d="M27.7621 8.52974C27.5394 8.52974 27.3302 8.37453 27.2695 8.14509L25.488 1.01223H18.76L16.9785 8.14509C16.911 8.41502 16.6343 8.57697 16.3644 8.50949C16.0945 8.44201 15.9257 8.16533 16 7.8954L17.8692 0.384648C17.9232 0.161957 18.1257 0 18.3618 0H25.8794C26.1088 0 26.3112 0.155209 26.372 0.384648L28.2547 7.90215C28.3222 8.17208 28.1602 8.44876 27.8903 8.51624C27.8498 8.52299 27.8093 8.52974 27.7689 8.52974H27.7621Z" fill="#E03100"/>
<path d="M35.3201 41.3328C35.1851 41.3328 35.0434 41.2788 34.9422 41.1641C34.7532 40.9549 34.7735 40.6377 34.9759 40.4488C38.9034 36.906 41.272 31.5816 41.3462 26.1561L22.1139 14.2522L2.89496 26.1628C2.97593 31.5884 5.34456 36.906 9.26526 40.4555C9.47446 40.6445 9.48796 40.9616 9.29901 41.1708C9.11006 41.38 8.79289 41.3935 8.5837 41.2046C4.38631 37.4121 1.87598 31.6829 1.87598 25.8862C1.87598 25.7107 1.9637 25.5487 2.11216 25.4543L21.8507 13.2333C22.0126 13.132 22.2218 13.132 22.3838 13.2333L42.1223 25.4543C42.2707 25.5487 42.3585 25.7107 42.3585 25.8862C42.3585 31.6829 39.8481 37.4121 35.6508 41.2046C35.5563 41.2923 35.4348 41.3328 35.3133 41.3328H35.3201Z" fill="#E03100"/>
</g>
<defs>
<clipPath id="clip0_1442_7081">
<rect width="44.2412" height="48" fill="white"/>
</clipPath>
</defs>
</svg>
