<svg viewBox="0 0 48 29" fill="none" xmlns="http://www.w3.org/2000/svg">
<g clip-path="url(#clip0_1442_7066)">
<path d="M16.4046 28.6793C14.2492 28.6793 12.4922 26.9223 12.4922 24.7668C12.4922 22.6114 14.2492 20.8544 16.4046 20.8544C18.5601 20.8544 20.3171 22.6114 20.3171 24.7668C20.3171 26.9223 18.5601 28.6793 16.4046 28.6793ZM16.4046 21.76C14.7443 21.76 13.3978 23.1064 13.3978 24.7668C13.3978 26.4272 14.7443 27.7736 16.4046 27.7736C18.065 27.7736 19.4114 26.4272 19.4114 24.7668C19.4114 23.1064 18.065 21.76 16.4046 21.76Z" fill="#E03100"/>
<path d="M39.9339 28.6793C37.7785 28.6793 36.0215 26.9223 36.0215 24.7668C36.0215 22.6114 37.7785 20.8544 39.9339 20.8544C42.0894 20.8544 43.8464 22.6114 43.8464 24.7668C43.8464 26.9223 42.0894 28.6793 39.9339 28.6793ZM39.9339 21.76C38.2736 21.76 36.9271 23.1064 36.9271 24.7668C36.9271 26.4272 38.2736 27.7736 39.9339 27.7736C41.5943 27.7736 42.9407 26.4272 42.9407 24.7668C42.9407 23.1064 41.5883 21.76 39.9339 21.76Z" fill="#E03100"/>
<path d="M47.5474 18.9948H45.4704C45.2229 18.9948 45.0176 18.7895 45.0176 18.5419C45.0176 18.2944 45.2229 18.0891 45.4704 18.0891H47.5474C47.7949 18.0891 48.0002 18.2944 48.0002 18.5419C48.0002 18.7895 47.7949 18.9948 47.5474 18.9948Z" fill="#E03100"/>
<path d="M42.0107 13.4641H35.0915C34.844 13.4641 34.6387 13.2588 34.6387 13.0113V8.86335C34.6387 8.61581 34.844 8.41052 35.0915 8.41052H39.9338C40.1813 8.41052 40.3866 8.61581 40.3866 8.86335C40.3866 9.1109 40.1813 9.31618 39.9338 9.31618H35.5443V12.5645H42.0107C42.2583 12.5645 42.4636 12.7698 42.4636 13.0173C42.4636 13.2649 42.2583 13.4701 42.0107 13.4701V13.4641Z" fill="#E03100"/>
<path d="M36.5462 25.914H19.7976C19.55 25.914 19.3447 25.7087 19.3447 25.4611C19.3447 25.2136 19.55 25.0083 19.7976 25.0083H36.5462C36.7938 25.0083 36.9991 25.2136 36.9991 25.4611C36.9991 25.7087 36.7938 25.914 36.5462 25.914Z" fill="#E03100"/>
<path d="M13.0174 25.9139H2.52981C1.13509 25.9139 0 24.7788 0 23.3841C0 23.1366 0.205283 22.9313 0.45283 22.9313C0.700377 22.9313 0.90566 23.1366 0.90566 23.3841C0.90566 24.2777 1.63623 25.0083 2.52981 25.0083H13.0174C13.2649 25.0083 13.4702 25.2135 13.4702 25.4611C13.4702 25.7086 13.2649 25.9139 13.0174 25.9139Z" fill="#E03100"/>
<path d="M30.9372 21.76C30.6897 21.76 30.4844 21.5547 30.4844 21.3072V5.72981C30.4844 5.48226 30.6897 5.27698 30.9372 5.27698C31.1848 5.27698 31.39 5.48226 31.39 5.72981V21.3072C31.39 21.5547 31.1848 21.76 30.9372 21.76Z" fill="#E03100"/>
<path d="M45.47 25.914H43.3266C43.0791 25.914 42.8738 25.7087 42.8738 25.4612C42.8738 25.2136 43.0791 25.0083 43.3266 25.0083H45.47C46.3636 25.0083 47.0942 24.2778 47.0942 23.3842V17.8476C47.0942 16.7548 46.4663 15.7344 45.4881 15.2514L41.8112 13.4159C41.7266 13.3736 41.6542 13.3012 41.6119 13.2166L38.7681 7.53513C38.4663 6.9374 37.8383 6.54494 37.1681 6.54494H30.9372C30.6897 6.54494 30.4844 6.33966 30.4844 6.09211C30.4844 5.84457 30.6897 5.63928 30.9372 5.63928H37.1681C38.1765 5.63928 39.1244 6.22494 39.5772 7.12457L42.3485 12.6672L45.8927 14.4363C47.1727 15.0763 47.9998 16.4106 47.9998 17.8415V23.3782C47.9998 24.7729 46.8647 25.908 45.47 25.908V25.914Z" fill="#E03100"/>
<path d="M47.5472 21.76H0.45283C0.205283 21.76 0 21.5547 0 21.3072C0 21.0597 0.205283 20.8544 0.45283 20.8544H47.5472C47.7947 20.8544 48 21.0597 48 21.3072C48 21.5547 47.7947 21.76 47.5472 21.76Z" fill="#E03100"/>
<path d="M0.45283 23.837C0.205283 23.837 0 23.6317 0 23.3842V2.52981C0 1.13509 1.13509 0 2.52981 0H40.32C41.7147 0 42.8498 1.13509 42.8498 2.52981V6.09208C42.8498 6.33962 42.6445 6.54491 42.397 6.54491H30.4543C30.2068 6.54491 30.0015 6.33962 30.0015 6.09208C30.0015 5.84453 30.2068 5.63925 30.4543 5.63925H41.9442V2.52377C41.9442 1.63019 41.2136 0.899623 40.32 0.899623H2.52981C1.63623 0.899623 0.90566 1.63019 0.90566 2.52377V23.3781C0.90566 23.6257 0.700377 23.8309 0.45283 23.8309V23.837Z" fill="#E03100"/>
<path d="M11.2485 21.76C11.001 21.76 10.7957 21.5547 10.7957 21.3072V7.2936H4.46816V21.3072C4.46816 21.5547 4.26288 21.76 4.01533 21.76C3.76778 21.76 3.5625 21.5547 3.5625 21.3072V6.84077C3.5625 6.59322 3.76778 6.38794 4.01533 6.38794H11.2546C11.5021 6.38794 11.7074 6.59322 11.7074 6.84077V21.3072C11.7074 21.5547 11.5021 21.76 11.2546 21.76H11.2485Z" fill="#E03100"/>
<path d="M11.2482 14.5268H9.1833C8.93575 14.5268 8.73047 14.3215 8.73047 14.0739C8.73047 13.8264 8.93575 13.6211 9.1833 13.6211H11.2482C11.4958 13.6211 11.701 13.8264 11.701 14.0739C11.701 14.3215 11.4958 14.5268 11.2482 14.5268Z" fill="#E03100"/>
<path d="M26.7408 12.8362H15.3054C15.0578 12.8362 14.8525 12.631 14.8525 12.3834V6.84077C14.8525 6.59322 15.0578 6.38794 15.3054 6.38794H26.7408C26.9884 6.38794 27.1937 6.59322 27.1937 6.84077V12.3834C27.1937 12.631 26.9884 12.8362 26.7408 12.8362ZM15.7522 11.9306H26.288V7.2936H15.7522V11.9306Z" fill="#E03100"/>
</g>
<defs>
<clipPath id="clip0_1442_7066">
<rect width="48" height="28.6792" fill="white"/>
</clipPath>
</defs>
</svg>
