 <svg width="64" height="64" viewBox="0 0 64 64" fill="none" xmlns="http://www.w3.org/2000/svg">
    <path fill-rule="evenodd" clip-rule="evenodd" d="M8.77385 52.712H51.739C58.4981 52.712 64 47.124 64 40.2616C64 35.3968 61.2447 31.0228 56.931 28.9822C56.9999 28.3794 57.0343 27.8112 57.0343 27.2773C57.0343 18.4604 49.9739 11.2881 41.2948 11.2881C33.9933 11.2881 27.7164 16.3595 26.0116 23.4802C24.3067 22.447 22.378 21.9131 20.3891 21.9131C14.2672 21.9131 9.29046 26.9674 9.29046 33.184C9.29046 33.7522 9.33351 34.3377 9.42823 34.9232C9.20436 34.906 8.9891 34.8974 8.77385 34.8974C3.93488 34.8974 0 38.8839 0 43.8004C0 48.7168 3.93488 52.712 8.77385 52.712ZM1.28293 43.809C1.28293 39.6072 4.64954 36.1889 8.77385 36.1889V36.1803C9.19575 36.1803 9.63487 36.2234 10.117 36.3095C10.3323 36.3525 10.5562 36.275 10.7025 36.1201C10.8489 35.9565 10.9092 35.7412 10.8575 35.5259C10.6681 34.7252 10.5734 33.933 10.5734 33.1753C10.5734 27.6734 14.9732 23.1961 20.3805 23.1961C22.4297 23.1961 24.3928 23.8418 26.0632 25.0559C26.244 25.185 26.4765 25.2195 26.6832 25.1334C26.8898 25.0559 27.0448 24.8665 27.0792 24.6512C28.3191 17.6597 34.2946 12.5796 41.2862 12.5796C49.2506 12.5796 55.7342 19.1751 55.7342 27.2773C55.7342 27.8973 55.6911 28.5516 55.5878 29.2921C55.5533 29.5763 55.7083 29.8604 55.9752 29.9723C60.0651 31.7202 62.7085 35.7584 62.7085 40.2702C62.7085 46.4265 57.7834 51.4291 51.739 51.4291H8.77385C4.64092 51.4291 1.28293 48.0108 1.28293 43.809ZM29.2407 48.295H38.2642H38.2728C38.6258 48.295 38.9186 48.0023 38.9186 47.6492V39.2715H43.9125C44.1622 39.2715 44.3947 39.1251 44.498 38.8926C44.6013 38.6601 44.5583 38.3846 44.3861 38.1952L34.2346 26.9158C33.9935 26.6402 33.52 26.6402 33.2789 26.9158L23.1274 38.1952C22.9552 38.3846 22.9121 38.6601 23.0154 38.8926C23.1188 39.1251 23.3426 39.2715 23.6009 39.2715H28.5949V47.6492C28.5949 48.0023 28.8876 48.295 29.2407 48.295ZM37.6184 47.0035H29.8864V38.6257C29.8864 38.2727 29.5937 37.9799 29.2407 37.9799H25.0475L33.7524 28.3106L42.4574 37.9799H38.2642C37.9112 37.9799 37.6184 38.2727 37.6184 38.6257V47.0035Z" fill="#E03100"/>
</svg> 