<svg viewBox="0 0 48 38" fill="none" xmlns="http://www.w3.org/2000/svg">
<g clip-path="url(#clip0_1442_7100)">
<path d="M34.4999 37.8868H13.5007C13.2531 37.8868 13.0479 37.6815 13.0479 37.4339V1.50941C13.0479 1.26186 13.2531 1.05658 13.5007 1.05658C13.7482 1.05658 13.9535 1.26186 13.9535 1.50941V36.9811H34.0531V1.50941C34.0531 1.26186 34.2584 1.05658 34.506 1.05658C34.7535 1.05658 34.9588 1.26186 34.9588 1.50941V37.4339C34.9588 37.6815 34.7535 37.8868 34.506 37.8868H34.4999Z" fill="#E03100"/>
<path d="M37.5005 1.96224H10.4997C10.2522 1.96224 10.0469 1.75696 10.0469 1.50941C10.0469 1.26186 10.2522 1.05658 10.4997 1.05658H37.5005C37.748 1.05658 37.9533 1.26186 37.9533 1.50941C37.9533 1.75696 37.748 1.96224 37.5005 1.96224Z" fill="#E03100"/>
<path d="M31.686 10.2158H16.5856C16.3381 10.2158 16.1328 10.0106 16.1328 9.76301V5.72377C16.1328 5.47622 16.3381 5.27094 16.5856 5.27094H31.686C31.9336 5.27094 32.1389 5.47622 32.1389 5.72377V9.76301C32.1389 10.0106 31.9336 10.2158 31.686 10.2158ZM17.0385 9.31018H31.2332V6.1766H17.0385V9.31018Z" fill="#E03100"/>
<path d="M31.686 18.1736H16.5856C16.3381 18.1736 16.1328 17.9683 16.1328 17.7208V13.6815C16.1328 13.434 16.3381 13.2287 16.5856 13.2287H31.686C31.9336 13.2287 32.1389 13.434 32.1389 13.6815V17.7208C32.1389 17.9683 31.9336 18.1736 31.686 18.1736ZM17.0385 17.2679H31.2332V14.1344H17.0385V17.2679Z" fill="#E03100"/>
<path d="M31.686 26.1313H16.5856C16.3381 26.1313 16.1328 25.926 16.1328 25.6785V21.6392C16.1328 21.3917 16.3381 21.1864 16.5856 21.1864H31.686C31.9336 21.1864 32.1389 21.3917 32.1389 21.6392V25.6785C32.1389 25.926 31.9336 26.1313 31.686 26.1313ZM17.0385 25.2256H31.2332V22.0921H17.0385V25.2256Z" fill="#E03100"/>
<path d="M31.686 34.0951H16.5856C16.3381 34.0951 16.1328 33.8898 16.1328 33.6422V29.603C16.1328 29.3554 16.3381 29.1501 16.5856 29.1501H31.686C31.9336 29.1501 32.1389 29.3554 32.1389 29.603V33.6422C32.1389 33.8898 31.9336 34.0951 31.686 34.0951ZM17.0385 33.1894H31.2332V30.0558H17.0385V33.1894Z" fill="#E03100"/>
<path d="M47.5473 37.8868H34.4997C34.2522 37.8868 34.0469 37.6815 34.0469 37.434V10.0347C34.0469 9.78719 34.2522 9.58191 34.4997 9.58191H47.5473C47.7948 9.58191 48.0001 9.78719 48.0001 10.0347V37.434C48.0001 37.6815 47.7948 37.8868 47.5473 37.8868ZM34.9525 36.9812H47.0944V10.4876H34.9525V36.9812Z" fill="#E03100"/>
<path d="M13.5004 37.8868H0.45283C0.205283 37.8868 0 37.6815 0 37.434V10.0347C0 9.78719 0.205283 9.58191 0.45283 9.58191H13.5004C13.7479 9.58191 13.9532 9.78719 13.9532 10.0347V37.434C13.9532 37.6815 13.7479 37.8868 13.5004 37.8868ZM0.90566 36.9812H13.0475V10.4876H0.90566V36.9812Z" fill="#E03100"/>
<path d="M13.5008 15.2694H4.2751C4.02755 15.2694 3.82227 15.0641 3.82227 14.8166C3.82227 14.5691 4.02755 14.3638 4.2751 14.3638H13.5008C13.7483 14.3638 13.9536 14.5691 13.9536 14.8166C13.9536 15.0641 13.7483 15.2694 13.5008 15.2694Z" fill="#E03100"/>
<path d="M13.5008 19.2483H4.2751C4.02755 19.2483 3.82227 19.043 3.82227 18.7955C3.82227 18.5479 4.02755 18.3427 4.2751 18.3427H13.5008C13.7483 18.3427 13.9536 18.5479 13.9536 18.7955C13.9536 19.043 13.7483 19.2483 13.5008 19.2483Z" fill="#E03100"/>
<path d="M13.5008 22.8166H4.2751C4.02755 22.8166 3.82227 22.6113 3.82227 22.3638C3.82227 22.1162 4.02755 21.9109 4.2751 21.9109H13.5008C13.7483 21.9109 13.9536 22.1162 13.9536 22.3638C13.9536 22.6113 13.7483 22.8166 13.5008 22.8166Z" fill="#E03100"/>
<path d="M13.5008 26.3788H4.2751C4.02755 26.3788 3.82227 26.1735 3.82227 25.926C3.82227 25.6784 4.02755 25.4731 4.2751 25.4731H13.5008C13.7483 25.4731 13.9536 25.6784 13.9536 25.926C13.9536 26.1735 13.7483 26.3788 13.5008 26.3788Z" fill="#E03100"/>
<path d="M43.7254 15.2694H34.4997C34.2522 15.2694 34.0469 15.0641 34.0469 14.8166C34.0469 14.5691 34.2522 14.3638 34.4997 14.3638H43.7254C43.9729 14.3638 44.1782 14.5691 44.1782 14.8166C44.1782 15.0641 43.9729 15.2694 43.7254 15.2694Z" fill="#E03100"/>
<path d="M43.7254 19.2483H34.4997C34.2522 19.2483 34.0469 19.043 34.0469 18.7955C34.0469 18.5479 34.2522 18.3427 34.4997 18.3427H43.7254C43.9729 18.3427 44.1782 18.5479 44.1782 18.7955C44.1782 19.043 43.9729 19.2483 43.7254 19.2483Z" fill="#E03100"/>
<path d="M43.7254 22.8166H34.4997C34.2522 22.8166 34.0469 22.6113 34.0469 22.3638C34.0469 22.1162 34.2522 21.9109 34.4997 21.9109H43.7254C43.9729 21.9109 44.1782 22.1162 44.1782 22.3638C44.1782 22.6113 43.9729 22.8166 43.7254 22.8166Z" fill="#E03100"/>
<path d="M43.7254 26.3788H34.4997C34.2522 26.3788 34.0469 26.1735 34.0469 25.926C34.0469 25.6784 34.2522 25.4731 34.4997 25.4731H43.7254C43.9729 25.4731 44.1782 25.6784 44.1782 25.926C44.1782 26.1735 43.9729 26.3788 43.7254 26.3788Z" fill="#E03100"/>
</g>
<defs>
<clipPath id="clip0_1442_7100">
<rect width="48" height="37.8868" fill="white"/>
</clipPath>
</defs>
</svg>
