<svg viewBox="0 0 21 18" fill="none" xmlns="http://www.w3.org/2000/svg" class="icon">
<path d="M19.875 15.375H1.07812C0.46875 15.375 0 15.8906 0 16.5C0 17.1562 0.46875 17.625 1.07812 17.625H19.875C20.4844 17.625 21 17.1562 21 16.5469C21 15.8906 20.4844 15.375 19.875 15.375ZM19.875 0.375H1.07812C0.46875 0.375 0 0.890625 0 1.5C0 2.0625 0.46875 2.625 1.07812 2.625H19.875C20.4844 2.625 21 2.15625 21 1.54688C21 0.984375 20.4844 0.375 19.875 0.375ZM19.875 7.875H1.07812C0.46875 7.875 0 8.39062 0 9C0 9.65625 0.46875 10.125 1.07812 10.125H19.875C20.4844 10.125 21 9.65625 21 9C21 8.39062 20.4844 7.875 19.875 7.875Z" fill="#E03100"/>
</svg>
