<svg viewBox="0 0 64 64" fill="none" xmlns="http://www.w3.org/2000/svg">
    <path fill-rule="evenodd" clip-rule="evenodd" d="M10.5887 29.7784C10.6787 30.0075 10.9078 30.1548 11.1533 30.1548H52.838C53.0835 30.1548 53.3045 30.0075 53.4027 29.7784C53.5009 29.5492 53.4436 29.2792 53.2717 29.1073L32.4294 8.26499C32.3148 8.15043 32.1593 8.08496 31.9957 8.08496C31.832 8.08496 31.6765 8.15043 31.562 8.26499L10.7196 29.1073C10.5478 29.2874 10.4905 29.5492 10.5887 29.7784ZM51.3651 28.9273H12.6345L31.9957 9.5661L51.3651 28.9273Z" fill="#F05136"/>
    <path fill-rule="evenodd" clip-rule="evenodd" d="M15.5395 53.6321C15.5395 54.8923 16.5624 55.9152 17.8226 55.9152H46.1688C47.429 55.9152 48.4519 54.8923 48.4519 53.6321V32.0287C48.4519 31.6932 48.1737 31.415 47.8382 31.415C47.5026 31.415 47.2244 31.6932 47.2244 32.0287V53.6321C47.2244 54.2131 46.7498 54.6877 46.1688 54.6877H43.7384V37.7896C43.7384 37.4541 43.4602 37.1759 43.1247 37.1759H20.8667C20.5312 37.1759 20.2529 37.4541 20.2529 37.7896V54.6877H17.8226C17.2416 54.6877 16.7669 54.2131 16.7669 53.6321V32.0287C16.7669 31.6932 16.4887 31.415 16.1532 31.415C15.8177 31.415 15.5395 31.6932 15.5395 32.0287V53.6321ZM32.6094 38.4033H42.511V54.6877H32.6094V47.1592H35.408C35.7435 47.1592 36.0218 46.881 36.0218 46.5455C36.0218 46.21 35.7435 45.9318 35.408 45.9318H32.6094V38.4033ZM31.3819 47.1592V54.6877H21.4804V38.4033H31.3819V45.9318H28.5833C28.2478 45.9318 27.9696 46.21 27.9696 46.5455C27.9696 46.881 28.2478 47.1592 28.5833 47.1592H31.3819Z" fill="#F05136"/>
    <path d="M6.61171 30.1548H0.613501C0.368008 30.1548 0.138881 30.0075 0.0488672 29.7783C-0.04933 29.5492 0.00795172 29.2874 0.179797 29.1073L12.8881 16.399C13.0027 16.2844 13.1582 16.219 13.3219 16.219H19.1482C19.4837 16.219 19.7619 16.4972 19.7619 16.8327C19.7619 17.1682 19.4837 17.4464 19.1482 17.4464H13.5755L2.09464 28.9273H6.61171C6.94722 28.9273 7.22544 29.2055 7.22544 29.541C7.22544 29.8765 6.94722 30.1548 6.61171 30.1548Z" fill="#F05136"/>
    <path d="M5.37606 53.4193H13.4691C13.8047 53.4193 14.0829 53.1411 14.0829 52.8056C14.0829 52.4701 13.8047 52.1919 13.4691 52.1919H5.38425C4.64777 52.1919 4.11587 52.02 3.83764 51.7009C3.52668 51.3408 3.59215 50.8498 3.59215 50.8498V32.0287C3.59215 31.6932 3.31392 31.415 2.97842 31.415C2.64291 31.415 2.36468 31.6932 2.36468 32.0287V50.7107C2.34013 50.948 2.29104 51.7827 2.8884 52.4864C3.41212 53.1084 4.2468 53.4193 5.37606 53.4193Z" fill="#F05136"/>
    <path d="M63.386 30.1548H57.3878C57.0523 30.1548 56.7741 29.8765 56.7741 29.541C56.7741 29.2055 57.0523 28.9273 57.3878 28.9273H61.9049L50.424 17.4464H44.7204C44.3849 17.4464 44.1067 17.1682 44.1067 16.8327C44.1067 16.4972 44.3849 16.219 44.7204 16.219H50.6777C50.8414 16.219 50.9968 16.2844 51.1114 16.399L63.8197 29.1073C63.9916 29.2792 64.0489 29.5492 63.9507 29.7783C63.8525 30.0075 63.6315 30.1548 63.386 30.1548Z" fill="#F05136"/>
    <path d="M50.5386 53.4193H58.6317C59.7609 53.4193 60.5956 53.1002 61.1193 52.4864C61.7167 51.7827 61.6758 50.9562 61.643 50.7107V32.0287C61.643 31.6932 61.3648 31.415 61.0293 31.415C60.6938 31.415 60.4156 31.6932 60.4156 32.0287V50.8416L60.416 50.8458C60.4208 50.8949 60.4667 51.3574 60.1701 51.7009C59.8919 52.02 59.36 52.1919 58.6235 52.1919H50.5386C50.2031 52.1919 49.9248 52.4701 49.9248 52.8056C49.9248 53.1411 50.2031 53.4193 50.5386 53.4193Z" fill="#F05136"/>
    <path d="M13.461 46.0382H6.66081C6.3253 46.0382 6.04708 45.7599 6.04708 45.4244V37.8714C6.04708 37.5359 6.3253 37.2577 6.66081 37.2577H13.461C13.7965 37.2577 14.0747 37.5359 14.0747 37.8714C14.0747 38.2069 13.7965 38.4852 13.461 38.4852H7.27454V44.8107H13.461C13.7965 44.8107 14.0747 45.0889 14.0747 45.4244C14.0747 45.7599 13.7965 46.0382 13.461 46.0382Z" fill="#F05136"/>
    <path d="M50.5386 46.0382H57.3387C57.6742 46.0382 57.9525 45.7599 57.9525 45.4244V37.8714C57.9525 37.5359 57.6742 37.2577 57.3387 37.2577H50.5386C50.2031 37.2577 49.9248 37.5359 49.9248 37.8714C49.9248 38.2069 50.2031 38.4852 50.5386 38.4852H56.725V44.8107H50.5386C50.2031 44.8107 49.9248 45.0889 49.9248 45.4244C49.9248 45.7599 50.2031 46.0382 50.5386 46.0382Z" fill="#F05136"/>
</svg>