<svg viewBox="0 0 48 48" fill="none" xmlns="http://www.w3.org/2000/svg">
<g clip-path="url(#clip0_1442_7046)">
<path d="M39.891 48H8.10819C6.72936 48 5.60352 46.8805 5.60352 45.4953V25.869C5.60352 25.5211 5.88814 25.2365 6.23601 25.2365C6.58388 25.2365 6.8685 25.5211 6.8685 25.869V45.4953C6.8685 46.1784 7.4251 46.735 8.10819 46.735H39.8847C40.5678 46.735 41.1244 46.1784 41.1244 45.4953V25.869C41.1244 25.5211 41.409 25.2365 41.7569 25.2365C42.1048 25.2365 42.3894 25.5211 42.3894 25.869V45.4953C42.3894 46.8741 41.2699 48 39.8847 48H39.891Z" fill="#E03100"/>
<path d="M47.3675 24.6293H0.632536C0.379539 24.6293 0.145516 24.4775 0.0506416 24.2372C-0.0505575 24.0032 0.006367 23.7312 0.18979 23.5478L23.5541 0.183418C23.8008 -0.0632551 24.1993 -0.0632551 24.446 0.183418L47.8103 23.5478C47.9937 23.7312 48.0443 24.0032 47.9494 24.2372C47.8546 24.4712 47.6205 24.6293 47.3675 24.6293ZM2.15685 23.3643H45.8369L23.9969 1.52431L2.15685 23.3643Z" fill="#E03100"/>
<path d="M39.8912 14.8193C39.5433 14.8193 39.2587 14.5347 39.2587 14.1868V5.00303H34.9134V8.57662C34.9134 8.92449 34.6288 9.20911 34.2809 9.20911C33.9331 9.20911 33.6484 8.92449 33.6484 8.57662V4.37053C33.6484 4.02266 33.9331 3.73804 34.2809 3.73804H39.8912C40.239 3.73804 40.5237 4.02266 40.5237 4.37053V14.1868C40.5237 14.5347 40.239 14.8193 39.8912 14.8193Z" fill="#E03100"/>
<path d="M30.6953 47.9937C30.3474 47.9937 30.0628 47.7091 30.0628 47.3612V28.3738H17.9378V47.3612C17.9378 47.7091 17.6532 47.9937 17.3053 47.9937C16.9575 47.9937 16.6729 47.7091 16.6729 47.3612V27.7413C16.6729 27.3934 16.9575 27.1088 17.3053 27.1088H30.6953C31.0431 27.1088 31.3277 27.3934 31.3277 27.7413V47.3612C31.3277 47.7091 31.0431 47.9937 30.6953 47.9937Z" fill="#E03100"/>
<path d="M30.6954 38.1837H26.8688C26.521 38.1837 26.2363 37.8991 26.2363 37.5512C26.2363 37.2033 26.521 36.9187 26.8688 36.9187H30.6954C31.0433 36.9187 31.3279 37.2033 31.3279 37.5512C31.3279 37.8991 31.0433 38.1837 30.6954 38.1837Z" fill="#E03100"/>
</g>
<defs>
<clipPath id="clip0_1442_7046">
<rect width="48" height="48" fill="white"/>
</clipPath>
</defs>
</svg>
