<svg width="64" height="60" viewBox="0 0 64 60" fill="none" xmlns="http://www.w3.org/2000/svg">
    <path fill-rule="evenodd" clip-rule="evenodd" d="M43.2908 59.4904H5.66039C2.53948 59.4904 0 56.9509 0 53.83V51.3248C0 50.9742 0.290715 50.6835 0.641283 50.6835H7.52441V6.16991C7.52441 3.049 10.0639 0.509521 13.1848 0.509521H53.3205L53.3225 0.509525L53.3291 0.509521C56.45 0.509521 58.9894 3.049 58.9894 6.16991V8.67519C58.9894 9.02575 58.6987 9.31647 58.3482 9.31647H48.9512V53.83C48.9512 56.9509 46.4118 59.4904 43.2908 59.4904ZM8.80698 6.16991V50.6835H38.2717C38.6223 50.6835 38.913 50.9742 38.913 51.3248V53.83C38.913 56.2413 40.8796 58.2079 43.2908 58.2079C45.7021 58.2079 47.6687 56.2413 47.6687 53.83V6.16991C47.6687 4.40781 48.4782 2.83105 49.7449 1.79209H13.1848C10.7736 1.79209 8.80698 3.75869 8.80698 6.16991ZM1.28257 51.966H8.1657H37.6305V53.83C37.6305 55.5914 38.4427 57.1733 39.7082 58.2079H5.66039C3.24916 58.2079 1.28257 56.2413 1.28257 53.83V51.966ZM48.9427 6.16991C48.9427 3.75869 50.9093 1.79209 53.3205 1.79209C55.7317 1.79209 57.6983 3.75869 57.6983 6.16991V8.0339H48.9427V6.16991ZM38.2717 14.3355H25.7282C25.3776 14.3355 25.0869 14.0448 25.0869 13.6943C25.0869 13.3437 25.3776 13.053 25.7282 13.053H38.2717C38.6222 13.053 38.913 13.3437 38.913 13.6943C38.913 14.0448 38.6222 14.3355 38.2717 14.3355ZM25.7282 19.3547H33.2526C33.6031 19.3547 33.8939 19.064 33.8939 18.7134C33.8939 18.3629 33.6031 18.0721 33.2526 18.0721H25.7282C25.3776 18.0721 25.0869 18.3629 25.0869 18.7134C25.0869 19.064 25.3776 19.3547 25.7282 19.3547ZM38.2717 26.879H25.7282C25.3776 26.879 25.0869 26.5883 25.0869 26.2377C25.0869 25.8871 25.3776 25.5964 25.7282 25.5964H38.2717C38.6222 25.5964 38.913 25.8871 38.913 26.2377C38.913 26.5883 38.6222 26.879 38.2717 26.879ZM25.7282 31.8982H33.2526C33.6031 31.8982 33.8939 31.6075 33.8939 31.2569C33.8939 30.9063 33.6031 30.6156 33.2526 30.6156H25.7282C25.3776 30.6156 25.0869 30.9063 25.0869 31.2569C25.0869 31.6075 25.3776 31.8982 25.7282 31.8982ZM38.2717 39.4226H25.7282C25.3776 39.4226 25.0869 39.1319 25.0869 38.7813C25.0869 38.4307 25.3776 38.14 25.7282 38.14H38.2717C38.6222 38.14 38.913 38.4307 38.913 38.7813C38.913 39.1319 38.6222 39.4226 38.2717 39.4226ZM25.7282 44.4416H33.2526C33.6031 44.4416 33.8939 44.1509 33.8939 43.8003C33.8939 43.4498 33.6031 43.1591 33.2526 43.1591H25.7282C25.3776 43.1591 25.0869 43.4498 25.0869 43.8003C25.0869 44.1509 25.3776 44.4416 25.7282 44.4416ZM15.6903 19.3547C15.5279 19.3547 15.3654 19.2949 15.2371 19.1666L12.7319 16.6613C12.4839 16.4134 12.4839 16.0029 12.7319 15.755C12.9798 15.507 13.3903 15.507 13.6382 15.755L15.6903 17.8071L20.2563 13.2411C20.5042 12.9932 20.9146 12.9932 21.1626 13.2411C21.4106 13.4891 21.4106 13.8995 21.1626 14.1475L16.1435 19.1666C16.0152 19.2949 15.8528 19.3547 15.6903 19.3547ZM15.2371 31.7101C15.3654 31.8383 15.5279 31.8982 15.6903 31.8982C15.8528 31.8982 16.0152 31.8383 16.1435 31.7101L21.1626 26.691C21.4106 26.443 21.4106 26.0326 21.1626 25.7846C20.9146 25.5366 20.5042 25.5366 20.2563 25.7846L15.6903 30.3505L13.6382 28.2984C13.3903 28.0505 12.9798 28.0505 12.7319 28.2984C12.4839 28.5464 12.4839 28.9568 12.7319 29.2048L15.2371 31.7101ZM15.6903 44.4416C15.5193 44.4416 15.3569 44.3732 15.2371 44.2535L12.7319 41.7482C12.4839 41.5003 12.4839 41.0898 12.7319 40.8419C12.9798 40.5939 13.3903 40.5939 13.6382 40.8419L15.6903 42.9025L20.2563 38.3366C20.5042 38.0886 20.9146 38.0886 21.1626 38.3366C21.4106 38.5846 21.4106 38.995 21.1626 39.243L16.1435 44.2621C16.0238 44.3818 15.8613 44.4502 15.6903 44.4502V44.4416ZM55.1846 56.8593C53.2794 56.1309 52.7726 52.2287 52.6797 51.3846V51.3162V31.2569V14.9512C52.6797 13.908 53.5262 13.053 54.5779 13.053H57.0832C58.1263 13.053 58.9814 13.8995 58.9814 14.9512V15.5582H59.5964C62.0248 15.5582 63.9999 17.5334 63.9999 19.9617V28.743C63.9999 29.0936 63.7092 29.3843 63.3586 29.3843C63.0081 29.3843 62.7173 29.0936 62.7173 28.743V19.9617C62.7173 18.2431 61.3151 16.8408 59.5964 16.8408H58.9814V31.2569V51.3247C58.8883 52.2323 58.38 56.1516 56.4671 56.8713V58.8492C56.4671 59.1998 56.1764 59.4905 55.8259 59.4905C55.4753 59.4905 55.1846 59.1998 55.1846 58.8492V56.8593ZM57.6988 16.1731V14.9512C57.6988 14.6092 57.4166 14.3355 57.0832 14.3355H54.5779C54.2359 14.3355 53.9623 14.6092 53.9623 14.9512V30.6156H57.6988V16.226C57.6984 16.2172 57.6982 16.2084 57.6982 16.1995C57.6982 16.1907 57.6984 16.1818 57.6988 16.1731ZM57.6988 31.8982H53.9623V51.2905L53.9537 51.282C54.1589 53.146 54.9114 55.694 55.8262 55.694C56.7411 55.694 57.5021 53.1118 57.6988 51.2478V31.8982Z" 
    fill="#E03100"/>
</svg>