<svg width="64" height="64" viewBox="0 0 64 64" fill="none" xmlns="http://www.w3.org/2000/svg">
    <path fill-rule="evenodd" clip-rule="evenodd" d="M24.4804 48.9608C10.9855 48.9608 0 37.9753 0 24.4804C0 10.9855 10.9855 0 24.4804 0C37.9753 0 48.9608 10.9855 48.9608 24.4804C48.9608 29.6361 47.3573 34.4255 44.6231 38.376L62.7099 56.4628C64.4296 58.1826 64.4296 60.9903 62.7099 62.7101C61.85 63.57 60.7181 63.9999 59.5862 63.9999C58.4543 63.9999 57.3224 63.57 56.4625 62.7101L38.3757 44.6233C34.4253 47.3574 29.636 48.9608 24.4804 48.9608ZM37.9538 43.3148C34.1555 46.0393 29.5023 47.6446 24.4804 47.6446C11.705 47.6446 1.31615 37.2558 1.31615 24.4804C1.31615 11.705 11.705 1.31615 24.4804 1.31615C37.2558 1.31615 47.6446 11.705 47.6446 24.4804C47.6446 29.5024 46.0393 34.1555 43.3147 37.9539C43.3071 37.9608 43.2996 37.9679 43.2923 37.9753C43.2353 38.0322 43.1911 38.0976 43.1596 38.1675C41.7589 40.0742 40.0737 41.7593 38.1671 43.16C38.0972 43.1914 38.0319 43.2356 37.975 43.2925C37.9677 43.2998 37.9607 43.3072 37.9538 43.3148ZM39.4492 43.8366L57.3926 61.78C58.6035 62.9909 60.5689 62.9909 61.7798 61.78C62.9907 60.5692 62.9907 58.6037 61.7798 57.3929L43.8364 39.4495C42.5647 41.0898 41.0896 42.565 39.4492 43.8366ZM8.17761 25.1385C7.81786 25.1385 7.51953 24.8402 7.51953 24.4804C7.51953 15.127 15.1269 7.51965 24.4803 7.51965C24.8401 7.51965 25.1384 7.81798 25.1384 8.17773C25.1384 8.53748 24.8401 8.8358 24.4803 8.8358C15.8551 8.8358 8.83568 15.8553 8.83568 24.4804C8.83568 24.8402 8.53735 25.1385 8.17761 25.1385Z" fill="#E03100"/>
</svg>   
