<svg width="64" height="64" viewBox="0 0 64 64" fill="none" xmlns="http://www.w3.org/2000/svg">
    <path fill-rule="evenodd" clip-rule="evenodd" d="M8.81398 38.9583H40.7719L40.78 38.9584V38.967C40.8155 38.967 40.8503 38.964 40.8843 38.9583H48.305C48.6572 38.9583 48.9493 38.6663 48.9493 38.3141V30.7608C48.9496 30.753 48.9497 30.7451 48.9497 30.7372C48.9497 30.7293 48.9496 30.7214 48.9493 30.7136V18.7446H55.1861V45.2467H8.81398V38.9583ZM8.78979 37.6698H40.1606C40.4718 33.6487 43.6699 30.4334 47.6607 30.1183V18.7193C43.6699 18.4041 40.4717 15.1888 40.1606 11.1677H8.78913C8.47796 15.189 5.27958 18.4043 1.28859 18.7193V30.1096C5.28243 30.4248 8.48252 33.6445 8.78979 37.6698ZM1.28859 17.426C4.57348 17.1176 7.19221 14.476 7.49593 11.1677H1.28859V17.426ZM8.16966 9.87915H0.644295C0.292081 9.87915 0 10.1712 0 10.5234V18.1004V30.7285V38.3141C0 38.6663 0.292081 38.9583 0.644295 38.9583H7.52539V45.891C7.52539 46.2432 7.81747 46.5353 8.16969 46.5353H15.0508V53.4765C15.0508 53.8287 15.3429 54.1208 15.6951 54.1208H63.3557C63.708 54.1208 64 53.8287 64 53.4765V25.6859C64 25.3337 63.708 25.0416 63.3557 25.0416H56.4747V18.1004C56.4747 17.7481 56.1826 17.4561 55.8304 17.4561H48.9493V10.5234C48.9493 10.1712 48.6572 9.87915 48.305 9.87915H40.78H8.16966ZM47.6607 11.1677V17.4259C44.376 17.1174 41.7575 14.4758 41.4538 11.1677H47.6607ZM7.49594 37.6698C7.19227 34.3607 4.57351 31.7121 1.28859 31.403V37.6698H7.49594ZM47.6607 37.6698H41.4544C41.7613 34.3583 44.3784 31.7199 47.6607 31.4116V37.6698ZM56.4747 45.891V26.3302H62.7115V52.8322H16.3394V46.5353H55.8304C56.1826 46.5353 56.4747 46.2432 56.4747 45.891ZM15.0508 24.423C15.0508 29.6547 19.2774 33.907 24.4747 33.907C29.672 33.907 33.8986 29.6547 33.8986 24.423C33.8986 19.1913 29.672 14.939 24.4747 14.939C19.2774 14.939 15.0508 19.1913 15.0508 24.423ZM16.3394 24.4144C16.3394 19.8957 19.9904 16.219 24.4747 16.219C28.959 16.219 32.61 19.8957 32.61 24.4144C32.61 28.9331 28.959 32.6098 24.4747 32.6098C19.9904 32.6098 16.3394 28.9331 16.3394 24.4144Z" fill="#E03100"/>
</svg>   