<svg viewBox="0 0 45 48" fill="none" xmlns="http://www.w3.org/2000/svg">
<g clip-path="url(#clip0_1442_7053)">
<path d="M15.5286 38.5897H8.00291C7.74186 38.5897 7.52539 38.3732 7.52539 38.1122C7.52539 37.8511 7.74186 37.6346 8.00291 37.6346H15.5286C15.7896 37.6346 16.0061 37.8511 16.0061 38.1122C16.0061 38.3732 15.7896 38.5897 15.5286 38.5897Z" fill="#E03100"/>
<path d="M24.9387 23.532H11.7656C11.5046 23.532 11.2881 23.3155 11.2881 23.0545V14.5865C11.2881 14.3255 11.5046 14.109 11.7656 14.109C12.0266 14.109 12.2431 14.3255 12.2431 14.5865V22.577H24.4612V14.5865C24.4612 14.3255 24.6777 14.109 24.9387 14.109C25.1997 14.109 25.4162 14.3255 25.4162 14.5865V23.0545C25.4162 23.3155 25.1997 23.532 24.9387 23.532Z" fill="#E03100"/>
<path d="M20.2335 23.532C19.9725 23.532 19.756 23.3156 19.756 23.0545V17.8846H16.9482V23.0545C16.9482 23.3156 16.7317 23.532 16.4707 23.532C16.2096 23.532 15.9932 23.3156 15.9932 23.0545V17.4071C15.9932 17.146 16.2096 16.9296 16.4707 16.9296H20.2335C20.4946 16.9296 20.711 17.146 20.711 17.4071V23.0545C20.711 23.3156 20.4946 23.532 20.2335 23.532Z" fill="#E03100"/>
<path d="M26.824 16.9487C26.703 16.9487 26.582 16.9041 26.4865 16.8086L18.356 8.67808L10.2255 16.8086C10.0408 16.9932 9.73523 16.9932 9.55059 16.8086C9.36595 16.624 9.36595 16.3184 9.55059 16.1337L18.0186 7.66575C18.1968 7.48748 18.5152 7.48748 18.6934 7.66575L27.1614 16.1337C27.3461 16.3184 27.3461 16.624 27.1614 16.8086C27.0659 16.9041 26.9449 16.9487 26.824 16.9487Z" fill="#E03100"/>
<path d="M19.2916 38.5897C19.1706 38.5897 19.0433 38.5388 18.9541 38.4496C18.8077 38.3032 18.7759 38.0804 18.865 37.9021L21.5264 32.5794C21.5518 32.5348 21.5773 32.4902 21.6155 32.4584L40.2068 13.8671C41.1237 12.9502 42.6199 12.9439 43.5431 13.8671C43.9888 14.3128 44.2307 14.9049 44.2307 15.5352C44.2307 16.1655 43.9888 16.7576 43.5431 17.2033L24.9518 35.7947C24.9136 35.8329 24.8754 35.8583 24.8308 35.8838L19.5081 38.5452C19.438 38.577 19.368 38.5961 19.298 38.5961L19.2916 38.5897ZM22.3477 33.0696L20.3612 37.0426L24.3342 35.0561L42.8682 16.5221C43.1356 16.2547 43.282 15.9045 43.282 15.5288C43.282 15.1532 43.1356 14.803 42.8682 14.5356C42.3206 13.988 41.4293 13.988 40.8817 14.5356L22.3477 33.0696Z" fill="#E03100"/>
<path d="M31.4586 29.084C31.3376 29.084 31.2166 29.0394 31.1211 28.9439L28.4598 26.2825C28.2751 26.0979 28.2751 25.7923 28.4598 25.6077C28.6444 25.423 28.95 25.423 29.1347 25.6077L31.796 28.269C31.9807 28.4537 31.9807 28.7593 31.796 28.9439C31.7005 29.0394 31.5795 29.084 31.4586 29.084Z" fill="#E03100"/>
<path d="M22.2775 32.9423H8.00291C7.74186 32.9423 7.52539 32.7259 7.52539 32.4648C7.52539 32.2038 7.74186 31.9873 8.00291 31.9873H22.2775C22.5385 31.9873 22.755 32.2038 22.755 32.4648C22.755 32.7259 22.5385 32.9423 22.2775 32.9423Z" fill="#E03100"/>
<path d="M26.0403 29.1795H8.00291C7.74186 29.1795 7.52539 28.963 7.52539 28.702C7.52539 28.441 7.74186 28.2245 8.00291 28.2245H26.0403C26.3014 28.2245 26.5178 28.441 26.5178 28.702C26.5178 28.963 26.3014 29.1795 26.0403 29.1795Z" fill="#E03100"/>
<path d="M33.4071 48H3.29805C1.47712 48 0 46.5229 0 44.702V9.88778C0 9.76045 0.0509351 9.63947 0.140072 9.55034L9.55034 0.140072C9.63947 0.0509351 9.76044 0 9.88778 0H33.4071C35.228 0 36.7051 1.47712 36.7051 3.29805V18.5149C36.7051 18.776 36.4887 18.9924 36.2276 18.9924C35.9666 18.9924 35.7501 18.776 35.7501 18.5149V3.29805C35.7501 2.00557 34.6996 0.955034 33.4071 0.955034H10.0852L0.955034 10.0852V44.702C0.955034 45.9944 2.00557 47.045 3.29805 47.045H33.4071C34.6996 47.045 35.7501 45.9944 35.7501 44.702V23.8376C35.7501 23.5766 35.9666 23.3601 36.2276 23.3601C36.4887 23.3601 36.7051 23.5766 36.7051 23.8376V44.702C36.7051 46.5229 35.228 48 33.4071 48Z" fill="#E03100"/>
<path d="M9.88782 10.3653H0.477554C0.286547 10.3653 0.108274 10.2507 0.0382381 10.0724C-0.0381646 9.89415 0.00640362 9.69041 0.140108 9.55033L9.55037 0.140069C9.68408 -3.04775e-06 9.89419 -0.0382044 10.0725 0.0381983C10.2507 0.114601 10.3653 0.286507 10.3653 0.477514V9.88778C10.3653 10.0151 10.3144 10.1361 10.2253 10.2252C10.1361 10.3144 10.0152 10.3653 9.88782 10.3653ZM1.62996 9.41026H9.4103V1.62992L1.62996 9.41026Z" fill="#E03100"/>
</g>
<defs>
<clipPath id="clip0_1442_7053">
<rect width="44.2372" height="48" fill="white"/>
</clipPath>
</defs>
</svg>
