<svg width="64" height="64" viewBox="0 0 64 64" fill="none" xmlns="http://www.w3.org/2000/svg">
    <path d="M57.9519 57.0961C57.7115 57.0961 57.4904 56.9807 57.3558 56.7788C51.6635 48.3365 42.1827 43.2884 32.0096 43.2884C21.8365 43.2884 12.3558 48.3269 6.66346 56.7788C6.39423 57.173 5.74039 57.173 5.47115 56.7788C1.88462 51.4903 0 45.3077 0 38.9038C0 21.2596 14.3558 6.90381 32 6.90381C49.6442 6.90381 64 21.2596 64 38.9038C64 45.3077 62.1154 51.4903 58.5481 56.7788C58.4135 56.9807 58.1923 57.0961 57.9519 57.0961ZM32.0096 41.8461C42.3077 41.8461 51.9135 46.7692 57.9327 55.0865C60.9712 50.2403 62.5673 44.6634 62.5673 38.9038C62.5673 22.0577 48.8558 8.34612 32.0096 8.34612C15.1635 8.34612 1.44231 22.0577 1.44231 38.9038C1.44231 44.6634 3.03846 50.2403 6.07692 55.0865C12.0962 46.7788 21.7115 41.8461 32 41.8461H32.0096Z" fill="#F05136"/>
    <path d="M32 38.923C31.8077 38.923 31.6154 38.8461 31.4712 38.6923C31.2019 38.4038 31.2115 37.9423 31.5096 37.673L46.8558 23.3269C47.1442 23.0577 47.6058 23.0673 47.875 23.3653C48.1442 23.6538 48.1346 24.1153 47.8365 24.3846L32.4904 38.7307C32.3558 38.8557 32.1731 38.923 32 38.923Z" fill="#F05136"/>
    <path d="M31.9904 15.2403C31.5962 15.2403 31.2692 14.9134 31.2692 14.5192V10.6346C31.2692 10.2403 31.5962 9.91342 31.9904 9.91342C32.3846 9.91342 32.7115 10.2403 32.7115 10.6346V14.5288C32.7115 14.923 32.3846 15.25 31.9904 15.25V15.2403Z" fill="#F05136"/>
    <path d="M60.0385 39.7211H56.1442C55.75 39.7211 55.4231 39.3942 55.4231 39C55.4231 38.6057 55.75 38.2788 56.1442 38.2788H60.0385C60.4327 38.2788 60.7596 38.6057 60.7596 39C60.7596 39.3942 60.4327 39.7211 60.0385 39.7211Z" fill="#F05136"/>
    <path d="M7.85577 39.7211H3.96154C3.56731 39.7211 3.24038 39.3942 3.24038 39C3.24038 38.6057 3.56731 38.2788 3.96154 38.2788H7.85577C8.25 38.2788 8.57692 38.6057 8.57692 39C8.57692 39.3942 8.25 39.7211 7.85577 39.7211Z" fill="#F05136"/>
    <path d="M27.0962 15.7403C26.7596 15.7403 26.4615 15.5 26.3942 15.1634L25.6154 11.3461C25.5385 10.9519 25.7885 10.5769 26.1827 10.5C26.5769 10.423 26.9519 10.673 27.0288 11.0673L27.8077 14.8846C27.8846 15.2788 27.6346 15.6538 27.2404 15.7307C27.1923 15.7307 27.1442 15.7403 27.0962 15.7403Z" fill="#F05136"/>
    <path d="M55.6538 34.9134C55.3173 34.9134 55.0192 34.673 54.9519 34.3365C54.875 33.9423 55.125 33.5673 55.5192 33.4903L59.3269 32.7115C59.7115 32.6346 60.0962 32.8846 60.1731 33.2788C60.25 33.673 60 34.048 59.6058 34.125L55.7981 34.9038C55.75 34.9038 55.7019 34.9134 55.6538 34.9134Z" fill="#F05136"/>
    <path d="M4.50962 45.3077C4.17308 45.3077 3.875 45.0673 3.80769 44.7307C3.73077 44.3365 3.98077 43.9615 4.375 43.8846L8.18269 43.1057C8.57692 43.0288 8.95192 43.2788 9.02885 43.673C9.10577 44.0673 8.85577 44.4423 8.46154 44.5192L4.65385 45.298C4.60577 45.298 4.55769 45.3077 4.50962 45.3077Z" fill="#F05136"/>
    <path d="M36.5385 15.673C36.5385 15.673 36.4519 15.673 36.4039 15.6634C36.0096 15.5865 35.7596 15.2115 35.8269 14.8173L36.5481 10.9903C36.625 10.5961 37 10.3365 37.3942 10.4134C37.7885 10.4903 38.0385 10.8653 37.9712 11.2596L37.25 15.0865C37.1827 15.4327 36.8846 15.673 36.5385 15.673Z" fill="#F05136"/>
    <path d="M59.5673 44.923C59.5673 44.923 59.4808 44.923 59.4327 44.9134L55.6058 44.1923C55.2115 44.1153 54.9615 43.7403 55.0288 43.3461C55.1058 42.9519 55.4808 42.6923 55.875 42.7692L59.7019 43.4903C60.0962 43.5673 60.3461 43.9423 60.2788 44.3365C60.2115 44.6827 59.9135 44.923 59.5673 44.923Z" fill="#F05136"/>
    <path d="M8.28846 35.25C8.28846 35.25 8.20192 35.25 8.15385 35.2403L4.32692 34.5192C3.93269 34.4423 3.68269 34.0673 3.75 33.673C3.82692 33.2788 4.20192 33.0192 4.59615 33.0961L8.42308 33.8173C8.81731 33.8942 9.06731 34.2692 9 34.6634C8.93269 35.0096 8.63462 35.25 8.28846 35.25Z" fill="#F05136"/>
    <path d="M45.3077 19.1634C45.1731 19.1634 45.0385 19.125 44.9135 19.048C44.5769 18.8365 44.4808 18.3846 44.7019 18.048L46.8077 14.7788C47.0192 14.4423 47.4712 14.3461 47.8077 14.5673C48.1442 14.7788 48.2404 15.2307 48.0192 15.5673L45.9135 18.8365C45.7789 19.048 45.5481 19.1634 45.3077 19.1634Z" fill="#F05136"/>
    <path d="M11.75 26.6346C11.6154 26.6346 11.4808 26.5961 11.3558 26.5192L8.08654 24.4038C7.75 24.1923 7.65385 23.7403 7.875 23.4038C8.08654 23.0673 8.53846 22.9711 8.875 23.1923L12.1442 25.3077C12.4808 25.5192 12.5769 25.9711 12.3558 26.3077C12.2212 26.5192 11.9904 26.6346 11.75 26.6346Z" fill="#F05136"/>
    <path d="M52.1154 25.6923C51.8846 25.6923 51.6635 25.5865 51.5192 25.3846C51.2885 25.0577 51.3654 24.6057 51.6923 24.3846L54.8846 22.1538C55.2115 21.923 55.6635 22.0096 55.8846 22.3269C56.1154 22.6538 56.0385 23.1057 55.7115 23.3269L52.5192 25.5577C52.3942 25.6442 52.25 25.6923 52.1058 25.6923H52.1154Z" fill="#F05136"/>
    <path d="M18.2212 19.9519C17.9904 19.9519 17.7692 19.8461 17.625 19.6442L15.3942 16.4519C15.1635 16.125 15.2404 15.673 15.5673 15.4519C15.8942 15.2211 16.3462 15.3077 16.5673 15.625L18.7981 18.8173C19.0288 19.1442 18.9519 19.5961 18.625 19.8173C18.5 19.9038 18.3558 19.9519 18.2115 19.9519H18.2212Z" fill="#F05136"/>
    <path d="M49.2596 22.3269C49.0769 22.3269 48.8942 22.2596 48.75 22.1153C48.4712 21.8365 48.4615 21.375 48.75 21.0961L51.4904 18.3269C51.7692 18.048 52.2308 18.0384 52.5096 18.3269C52.7885 18.6153 52.7981 19.0673 52.5096 19.3461L49.7692 22.1153C49.625 22.2596 49.4423 22.3269 49.2596 22.3269Z" fill="#F05136"/>
    <path d="M14.8846 22.7596C14.7019 22.7596 14.5192 22.6923 14.375 22.548L11.6058 19.8077C11.3269 19.5288 11.3173 19.0673 11.6058 18.7884C11.8846 18.5096 12.3462 18.5 12.625 18.7884L15.3942 21.5288C15.6731 21.8077 15.6827 22.2692 15.3942 22.548C15.25 22.6923 15.0673 22.7596 14.8846 22.7596Z" fill="#F05136"/>
    <path d="M41.2596 17.048C41.1731 17.048 41.0769 17.0288 40.9904 16.9903C40.625 16.8365 40.4423 16.423 40.5962 16.048L42.0673 12.4423C42.2212 12.0769 42.6346 11.8942 43.0096 12.048C43.375 12.2019 43.5577 12.6153 43.4038 12.9903L41.9327 16.5961C41.8173 16.875 41.5481 17.048 41.2692 17.048H41.2596Z" fill="#F05136"/>
    <path d="M9.66346 30.6057C9.57692 30.6057 9.48077 30.5865 9.39423 30.548L5.78846 29.0769C5.42308 28.923 5.24039 28.5096 5.39423 28.1346C5.54808 27.7692 5.96154 27.5865 6.33654 27.7403L9.94231 29.2115C10.3077 29.3653 10.4904 29.7788 10.3365 30.1538C10.2212 30.4327 9.95192 30.6057 9.67308 30.6057H9.66346Z" fill="#F05136"/>
    <path d="M22.4808 17.1827C22.2019 17.1827 21.9327 17.0192 21.8173 16.7403L20.3077 13.1538C20.1538 12.7884 20.3269 12.3653 20.6923 12.2115C21.0577 12.0577 21.4808 12.2307 21.6346 12.5961L23.1442 16.1827C23.2981 16.548 23.125 16.9711 22.7596 17.125C22.6731 17.1634 22.5769 17.1827 22.4808 17.1827Z" fill="#F05136"/>
    <path d="M54.25 30.3653C53.9712 30.3653 53.7019 30.2019 53.5865 29.923C53.4327 29.5577 53.6058 29.1346 53.9712 28.9807L57.5577 27.4711C57.9231 27.3173 58.3462 27.4904 58.5 27.8557C58.6539 28.2211 58.4808 28.6442 58.1154 28.798L54.5288 30.3077C54.4423 30.3461 54.3462 30.3653 54.25 30.3653Z" fill="#F05136"/>
</svg> 