<svg class="logo" viewBox="0 0 225 225" fill="none" xmlns="http://www.w3.org/2000/svg">
<g clip-path="url(#clip0_2_1808)">
<path d="M112.5 165.329C141.663 165.329 165.329 141.663 165.329 112.5C165.329 83.3366 141.663 59.6713 112.5 59.6713C83.3367 59.6713 59.6714 83.3366 59.6714 112.5C59.6714 141.663 83.3367 165.329 112.5 165.329Z" fill="white"/>
<path d="M145.458 192.042H192.072V145.428L145.458 192.042ZM32.958 145.428V192.042H79.5417L32.958 145.428ZM79.5417 32.9581H32.958V79.5717L79.5417 32.9581ZM192.042 79.5717V32.9581H145.428L192.042 79.5717Z" fill="white"/>
<path d="M112.5 0L79.5418 32.9582H145.428L112.5 0ZM192.042 145.458L225 112.5L192.042 79.5418V145.428V145.458ZM0 112.5L32.9582 145.458V79.5717L0 112.5ZM79.5418 192.042L112.5 225L145.458 192.042H79.5418Z" fill="white"/>
</g>
<defs>
<clipPath id="clip0_2_1808">
<rect width="225" height="225" fill="white"/>
</clipPath>
</defs>
</svg>
