<svg className="svg-light-logo" viewBox="0 0 210 42" fill="none" xmlns="http://www.w3.org/2000/svg">
<g clip-path="url(#clip0_946_3254)">
<path d="M20.765 30.1324C26.1502 30.1324 30.5138 25.8233 30.5138 20.5054C30.5138 15.1875 26.1502 10.8784 20.765 10.8784C15.3797 10.8784 11.0161 15.1875 11.0161 20.5054C11.0161 25.8233 15.3797 30.1324 20.765 30.1324Z" fill="white"/>
<path d="M26.839 34.9968H35.4395V26.5038L26.839 34.9968ZM6.07422 26.5038V34.9968H14.6747L6.07422 26.5038ZM14.6827 6.00635H6.08214V14.4994L14.6827 6.00635ZM35.4474 14.4994V6.00635H26.8469L35.4474 14.4994Z" fill="white"/>
<path d="M20.7648 0L14.6827 6.00611H26.8469L20.7648 0ZM35.4474 26.5035L41.5296 20.4974L35.4474 14.4913V26.5035ZM0 20.5052L6.08214 26.5113V14.4991L0 20.5052ZM14.6827 35.0043L20.7648 41.0105L26.8469 35.0043H14.6827Z" fill="#F05338"/>
<path d="M193.068 26.0732V15.7581H194.565C198.2 15.7581 199.863 17.893 199.863 20.9196C199.863 23.9461 198.2 26.0811 194.565 26.0811H193.068V26.0732ZM189.694 28.9981H194.723C199.776 28.9981 203.34 25.69 203.34 20.9196C203.34 16.1491 199.752 12.8332 194.723 12.8332H189.694V28.9981ZM173.301 28.9981H184.087V26.0732H176.675V12.8332H173.301V28.9981ZM155.15 28.9981H166.324V26.0732H158.523V21.9831H165.097V19.1287H158.523V15.7502H165.983V12.8254H155.15V28.9903V28.9981ZM143.983 28.9981H147.357V12.8332H143.983V28.9981ZM126.671 28.9981H130.045V22.3194H136.571V19.3476H130.045V15.7581H137.22V12.8332H126.671V28.9981ZM113.264 28.9981H116.637V15.7581H121.31V12.8332H108.599V15.7581H113.272V28.9981H113.264ZM98.985 29.2092C102.184 29.2092 104.568 27.5669 104.568 24.5717C104.568 21.7876 102.953 20.552 100.094 19.3398L99.2542 18.9801C97.8129 18.3623 97.1873 17.9556 97.1873 16.9624C97.1873 16.1569 97.8129 15.5391 98.8028 15.5391C99.7928 15.5391 100.395 15.9457 100.973 16.9624L103.594 15.2966C102.485 13.3728 100.949 12.6377 98.8028 12.6377C95.7934 12.6377 93.869 14.5381 93.869 17.0328C93.869 19.7465 95.4846 21.029 97.9158 22.0535L98.7553 22.4054C100.3 23.0702 101.21 23.4768 101.21 24.6186C101.21 25.5727 100.323 26.2609 98.9216 26.2609C97.2585 26.2609 96.324 25.4007 95.5954 24.2432L92.8553 25.8152C93.8452 27.739 95.8647 29.2171 98.9929 29.2171M77.0877 29.0059H88.2541V26.0811H80.4535V21.991H87.0266V19.1365H80.4535V15.7581H87.9136V12.8332H77.0798V28.9981L77.0877 29.0059ZM55.9982 29.1467H56.3308L60.1559 21.3497C60.5915 20.4503 61.0983 18.9488 61.0983 18.9488C61.0983 18.9488 61.5814 20.4503 62.017 21.3497L65.6995 29.1467H66.0321L71.9797 12.841H68.7089L66.3489 19.332C65.9371 20.4503 65.4778 22.2569 65.4778 22.2569C65.4778 22.2569 64.9947 20.4269 64.4641 19.332L61.2646 12.7003H60.9241L57.7722 19.332C57.2416 20.4269 56.7585 22.2569 56.7585 22.2569C56.7585 22.2569 56.2992 20.4503 55.8953 19.332L53.5115 12.841H49.9478L55.9903 29.1467H55.9982Z" fill="white"/>
<path d="M205.13 14.1236C205.264 13.8186 205.446 13.5605 205.676 13.3337C205.906 13.1148 206.175 12.9349 206.484 12.8098C206.793 12.6846 207.118 12.6221 207.466 12.6221C207.814 12.6221 208.139 12.6846 208.448 12.8098C208.757 12.9349 209.018 13.1069 209.248 13.3337C209.478 13.5605 209.66 13.8186 209.794 14.1236C209.929 14.4286 210 14.7492 210 15.1012C210 15.4531 209.929 15.7972 209.794 16.1022C209.66 16.4072 209.478 16.6731 209.248 16.892C209.018 17.111 208.749 17.2909 208.448 17.416C208.147 17.5411 207.814 17.6037 207.466 17.6037C207.118 17.6037 206.793 17.5411 206.484 17.416C206.175 17.2909 205.906 17.1188 205.676 16.892C205.446 16.6652 205.264 16.4072 205.13 16.1022C204.995 15.7972 204.924 15.4687 204.924 15.1012C204.924 14.7336 204.995 14.4208 205.13 14.1236ZM205.542 15.9536C205.644 16.2117 205.795 16.4385 205.977 16.634C206.159 16.8295 206.381 16.9781 206.642 17.0876C206.896 17.197 207.173 17.2518 207.466 17.2518C207.759 17.2518 208.028 17.197 208.282 17.0876C208.535 16.9781 208.757 16.8295 208.939 16.634C209.129 16.4463 209.272 16.2195 209.375 15.9536C209.478 15.6955 209.533 15.4062 209.533 15.1012C209.533 14.7962 209.478 14.5224 209.375 14.2644C209.272 14.0063 209.121 13.7795 208.939 13.5918C208.749 13.4041 208.535 13.2555 208.282 13.146C208.028 13.0366 207.759 12.9818 207.466 12.9818C207.173 12.9818 206.896 13.0366 206.642 13.146C206.389 13.2555 206.167 13.4041 205.977 13.5918C205.787 13.7795 205.644 14.0063 205.542 14.2644C205.439 14.5224 205.383 14.7962 205.383 15.1012C205.383 15.4062 205.439 15.6877 205.542 15.9536ZM207.624 13.6544C207.973 13.6544 208.234 13.7248 208.4 13.8577C208.567 13.9985 208.654 14.2018 208.654 14.4833C208.654 14.7492 208.583 14.9369 208.432 15.0621C208.282 15.1872 208.1 15.2576 207.878 15.281L208.725 16.5714H208.234L207.434 15.3201H206.951V16.5714H206.492V13.6544H207.632H207.624ZM207.418 14.9447C207.521 14.9447 207.616 14.9447 207.711 14.9369C207.806 14.9369 207.886 14.9135 207.957 14.8822C208.028 14.8509 208.084 14.804 208.131 14.7414C208.171 14.6789 208.195 14.585 208.195 14.4755C208.195 14.3817 208.179 14.3035 208.139 14.2409C208.1 14.1862 208.052 14.1392 207.989 14.108C207.925 14.0767 207.854 14.0532 207.783 14.0454C207.704 14.0376 207.624 14.0298 207.553 14.0298H206.943V14.9604H207.426L207.418 14.9447Z" fill="white"/>
</g>
<defs>
<clipPath id="clip0_946_3254">
<rect width="210" height="41.0026" fill="white"/>
</clipPath>
</defs>
</svg>
