<svg className="svg-dark-logo" viewBox="0 0 288 56" fill="none" xmlns="http://www.w3.org/2000/svg">
<g clip-path="url(#clip0_1271_8885)">
<path d="M28.4773 41.1535C35.8627 41.1535 41.8471 35.2684 41.8471 28.0053C41.8471 20.7423 35.8627 14.8571 28.4773 14.8571C21.0918 14.8571 15.1074 20.7423 15.1074 28.0053C15.1074 35.2684 21.0918 41.1535 28.4773 41.1535Z" fill="#5F6360"/>
<path d="M36.808 47.7971H48.603V36.1976L36.808 47.7971ZM8.33057 36.1976V47.7971H20.1256L8.33057 36.1976ZM20.1364 8.20293H8.34143V19.8024L20.1364 8.20293ZM48.6139 19.8024V8.20293H36.8189L48.6139 19.8024Z" fill="#5F6360"/>
<path d="M28.4774 0L20.1362 8.20294H36.8186L28.4774 0ZM48.6136 36.1976L56.9548 27.9947L48.6136 19.7917V36.1976ZM0 28.0053L8.34121 36.2083V19.8024L0 28.0053ZM20.1362 47.8077L28.4774 56.0107L36.8186 47.8077H20.1362Z" fill="#F05338"/>
<path d="M264.779 35.6101V21.522H266.832C271.817 21.522 274.098 24.4379 274.098 28.5714C274.098 32.7049 271.817 35.6208 266.832 35.6208H264.779V35.6101ZM260.152 39.6048H267.049C273.978 39.6048 278.866 35.0868 278.866 28.5714C278.866 22.0561 273.946 17.5274 267.049 17.5274H260.152V39.6048ZM237.67 39.6048H252.463V35.6101H242.297V17.5274H237.67V39.6048ZM212.777 39.6048H228.102V35.6101H217.404V30.024H226.418V26.1255H217.404V21.5113H227.635V17.5167H212.777V39.5941V39.6048ZM197.463 39.6048H202.09V17.5274H197.463V39.6048ZM173.721 39.6048H178.348V30.4833H187.297V26.4246H178.348V21.522H188.188V17.5274H173.721V39.6048ZM155.333 39.6048H159.96V21.522H166.368V17.5274H148.936V21.522H155.344V39.6048H155.333ZM135.751 39.8932C140.139 39.8932 143.408 37.6502 143.408 33.5594C143.408 29.757 141.192 28.0694 137.272 26.4139L136.12 25.9226C134.144 25.0788 133.286 24.5234 133.286 23.1669C133.286 22.0668 134.144 21.223 135.501 21.223C136.859 21.223 137.684 21.7784 138.477 23.1669L142.072 20.8919C140.552 18.2644 138.445 17.2603 135.501 17.2603C131.374 17.2603 128.735 19.8558 128.735 23.263C128.735 26.9693 130.95 28.721 134.285 30.1202L135.436 30.6008C137.554 31.5087 138.803 32.0641 138.803 33.6235C138.803 34.9266 137.587 35.8665 135.664 35.8665C133.383 35.8665 132.102 34.6916 131.103 33.1108L127.345 35.2577C128.702 37.8852 131.472 39.9039 135.762 39.9039M105.72 39.6155H121.034V35.6208H110.336V30.0347H119.351V26.1362H110.336V21.522H120.567V17.5274H105.71V39.6048L105.72 39.6155ZM76.7978 39.8077H77.2539L82.4998 29.1589C83.0971 27.9306 83.7922 25.8798 83.7922 25.8798C83.7922 25.8798 84.4547 27.9306 85.0521 29.1589L90.1024 39.8077H90.5586L98.7152 17.538H94.2296L90.993 26.4032C90.4283 27.9306 89.7983 30.3979 89.7983 30.3979C89.7983 30.3979 89.1358 27.8985 88.4081 26.4032L84.0203 17.3458H83.5533L79.2306 26.4032C78.5029 27.8985 77.8404 30.3979 77.8404 30.3979C77.8404 30.3979 77.2105 27.9306 76.6566 26.4032L73.3874 17.538H68.5L76.7869 39.8077H76.7978Z" fill="#5F6360"/>
<path d="M281.32 19.2897C281.505 18.8732 281.755 18.5207 282.07 18.2109C282.385 17.9119 282.754 17.6662 283.178 17.4953C283.601 17.3244 284.047 17.239 284.524 17.239C285.002 17.239 285.448 17.3244 285.871 17.4953C286.295 17.6662 286.653 17.9012 286.968 18.2109C287.283 18.5207 287.533 18.8732 287.718 19.2897C287.902 19.7063 288 20.1442 288 20.6248C288 21.1055 287.902 21.5754 287.718 21.992C287.533 22.4085 287.283 22.7717 286.968 23.0708C286.653 23.3698 286.284 23.6155 285.871 23.7864C285.458 23.9573 285.002 24.0427 284.524 24.0427C284.047 24.0427 283.601 23.9573 283.178 23.7864C282.754 23.6155 282.385 23.3805 282.07 23.0708C281.755 22.761 281.505 22.4085 281.32 21.992C281.136 21.5754 281.038 21.1268 281.038 20.6248C281.038 20.1228 281.136 19.6956 281.32 19.2897ZM281.885 21.7891C282.026 22.1415 282.233 22.4513 282.483 22.7183C282.732 22.9853 283.036 23.1883 283.395 23.3378C283.742 23.4873 284.123 23.5621 284.524 23.5621C284.926 23.5621 285.296 23.4873 285.643 23.3378C285.991 23.1883 286.295 22.9853 286.545 22.7183C286.805 22.4619 287.001 22.1522 287.142 21.7891C287.283 21.4366 287.359 21.0414 287.359 20.6248C287.359 20.2083 287.283 19.8344 287.142 19.482C287.001 19.1295 286.794 18.8198 286.545 18.5634C286.284 18.3071 285.991 18.1041 285.643 17.9546C285.296 17.8051 284.926 17.7303 284.524 17.7303C284.123 17.7303 283.742 17.8051 283.395 17.9546C283.047 18.1041 282.743 18.3071 282.483 18.5634C282.222 18.8198 282.026 19.1295 281.885 19.482C281.744 19.8344 281.668 20.2083 281.668 20.6248C281.668 21.0414 281.744 21.4259 281.885 21.7891ZM284.742 18.6489C285.22 18.6489 285.578 18.745 285.806 18.9266C286.034 19.1188 286.154 19.3965 286.154 19.781C286.154 20.1442 286.056 20.4005 285.849 20.5714C285.643 20.7423 285.393 20.8385 285.089 20.8705L286.251 22.6328H285.578L284.481 20.9239H283.818V22.6328H283.189V18.6489H284.753H284.742ZM284.459 20.4112C284.6 20.4112 284.731 20.4112 284.861 20.4005C284.991 20.4005 285.1 20.3685 285.198 20.3258C285.296 20.283 285.372 20.219 285.437 20.1335C285.491 20.0481 285.524 19.9199 285.524 19.7704C285.524 19.6422 285.502 19.5354 285.448 19.4499C285.393 19.3752 285.328 19.3111 285.241 19.2684C285.154 19.2256 285.057 19.1936 284.959 19.1829C284.85 19.1722 284.742 19.1615 284.644 19.1615H283.808V20.4326H284.47L284.459 20.4112Z" fill="#5F6360"/>
</g>
</svg>
